<?xml version="1.0" encoding="UTF-8" standalone="no"?>
<!-- Created with Inkscape (http://www.inkscape.org/) -->

<svg
  width="107.5479mm"
  height="107.5479mm"
  viewBox="0 0 107.5479 107.5479"
  version="1.1"
  id="svg5"
  xml:space="preserve"
  xmlns:xlink="http://www.w3.org/1999/xlink"
  xmlns="http://www.w3.org/2000/svg"
  xmlns:svg="http://www.w3.org/2000/svg"><defs
     id="defs2"><rect
       x="-555.3515"
       y="-63.198481"
       width="268.43013"
       height="340.70205"
       id="rect3506" /><linearGradient
       id="linearGradient1385"><stop
         style="stop-color:#ff5d51;stop-opacity:1;"
         offset="0"
         id="stop1381" /><stop
         style="stop-color:#1200da;stop-opacity:1;"
         offset="1"
         id="stop1383" /></linearGradient><rect
       x="48.348118"
       y="243.26962"
       width="656.28558"
       height="654.7887"
       id="rect236" /><linearGradient
       xlink:href="#linearGradient1385"
       id="linearGradient1387"
       x1="289.08983"
       y1="148.24757"
       x2="355.40539"
       y2="148.24757"
       gradientUnits="userSpaceOnUse" /><linearGradient
       xlink:href="#linearGradient1385"
       id="linearGradient2736"
       gradientUnits="userSpaceOnUse"
       x1="355.4054"
       y1="87.600975"
       x2="289.08984"
       y2="208.89417" /><linearGradient
       xlink:href="#linearGradient1385"
       id="linearGradient3502"
       gradientUnits="userSpaceOnUse"
       x1="289.08983"
       y1="148.24757"
       x2="355.40539"
       y2="148.24757" /></defs><g
     id="layer1"
     transform="translate(-94.135994,-93.325218)"><text
       xml:space="preserve"
       transform="scale(0.26458333)"
       id="text234"
       style="font-size:40px;line-height:1.25;font-family:Inter;-inkscape-font-specification:'Inter, Normal';white-space:pre;shape-inside:url(#rect236);display:inline" /><g
       style="clip-rule:evenodd;fill:url(#linearGradient1387);fill-opacity:1;fill-rule:evenodd;stroke-linejoin:round;stroke-miterlimit:2"
       id="g254"
       transform="matrix(0.87079683,0,0,0.87079683,-132.70226,16.940561)"><g
         id="g917"
         style="fill:url(#linearGradient3502);fill-opacity:1"><path
           d="m 355.40539,94.267337 c 0,-4.36228 -3.4476,-7.30006 -7.7064,-6.549228 l -50.90277,8.97424 c -4.2588,0.750833 -7.70639,4.904251 -7.70639,9.266531 v 96.25898 c 0,4.37224 3.44759,7.31002 7.70639,6.55919 l 50.90277,-8.97424 c 4.2588,-0.75083 7.7064,-4.90425 7.7064,-9.27649 z"
           style="fill:url(#linearGradient2736);fill-opacity:1;stroke-width:1.00494"
           id="path9537" /></g></g><g
       aria-label="×"
       transform="matrix(1.3508163,-0.24200502,0.24200502,1.3508163,888.61995,67.627834)"
       id="text3504"
       style="font-size:40px;line-height:1.25;font-family:Inter;-inkscape-font-specification:'Inter, Normal';white-space:pre;shape-inside:url(#rect3506);display:inline;fill:#ffffff"><path
         d="m -554.31156,-26.180439 0.96,-6.44 q 0.32,-2 0.92,-3.8 0.64,-1.8 1.88,-3.24 1.28,-1.48 3.44,-2.4 -1.12,-1.36 -2.4,-2.96 -1.24,-1.64 -2.36,-3.08 -1.12,-1.44 -1.76,-2.2 h 7.44 q 0.76,0.92 1.68,2.2 0.92,1.24 1.84,2.56 0.96,1.28 1.68,2.28 0.52,0.76 1.04,1.56 0.52,0.76 1.04,1.52 1.56,-0.84 2.08,-2.48 0.56,-1.64 0.76,-3.52 l 0.52,-4.12 h 6.04 l -0.48,4.48 q -0.28,2.92 -1.72,5.44 -1.44,2.52 -4.64,3.88 1.76,2.48 3.52,5.08 1.8,2.56 3.48,5.24 h -7.08 q -2.04,-3.52 -3.96,-6.48 -1.88,-3 -3.96,-5.8 -1.6,0.76 -2.16,2.48 -0.52,1.68 -0.8,3.72 l -0.92,6.08 z"
         style="font-weight:900;-inkscape-font-specification:'Inter Heavy'"
         id="path3616" /></g></g></svg>